<mxfile host="app.diagrams.net" modified="2021-09-14T08:03:25.579Z" agent="5.0 (Windows NT 10.0; Win64; x64) AppleWebKit/537.36 (KHTML, like Gecko) Chrome/93.0.4577.63 Safari/537.36" etag="3GuV7yy7_D1ZjWrLIM3V" version="15.2.4" type="github">
  <diagram id="24gW2aaC1v7GGiUZ1pMK" name="Page-1">
    <mxGraphModel dx="2839" dy="1757" grid="1" gridSize="10" guides="1" tooltips="1" connect="1" arrows="1" fold="1" page="1" pageScale="1" pageWidth="827" pageHeight="1169" math="0" shadow="0">
      <root>
        <mxCell id="0" />
        <mxCell id="1" parent="0" />
        <mxCell id="wk1zh_JFjW3oBxZrR2lf-1" value="Набор" style="swimlane;fontStyle=0;childLayout=stackLayout;horizontal=1;startSize=26;fillColor=none;horizontalStack=0;resizeParent=1;resizeParentMax=0;resizeLast=0;collapsible=1;marginBottom=0;" parent="1" vertex="1">
          <mxGeometry x="180" y="50" width="190" height="80" as="geometry">
            <mxRectangle x="160" y="70" width="70" height="26" as="alternateBounds" />
          </mxGeometry>
        </mxCell>
        <mxCell id="wk1zh_JFjW3oBxZrR2lf-3" value="Место производства&#xa;Feedback&#xa;Производственный персонал" style="text;strokeColor=none;fillColor=none;align=left;verticalAlign=top;spacingLeft=4;spacingRight=4;overflow=hidden;rotatable=0;points=[[0,0.5],[1,0.5]];portConstraint=eastwest;" parent="wk1zh_JFjW3oBxZrR2lf-1" vertex="1">
          <mxGeometry y="26" width="190" height="54" as="geometry" />
        </mxCell>
        <mxCell id="wk1zh_JFjW3oBxZrR2lf-5" value="Геймпад" style="swimlane;fontStyle=0;childLayout=stackLayout;horizontal=1;startSize=26;fillColor=none;horizontalStack=0;resizeParent=1;resizeParentMax=0;resizeLast=0;collapsible=1;marginBottom=0;" parent="1" vertex="1">
          <mxGeometry x="10" y="230" width="140" height="90" as="geometry" />
        </mxCell>
        <mxCell id="wk1zh_JFjW3oBxZrR2lf-6" value="Место производства&#xa;Набор&#xa;ПО&#xa;Разработчики" style="text;strokeColor=none;fillColor=none;align=left;verticalAlign=top;spacingLeft=4;spacingRight=4;overflow=hidden;rotatable=0;points=[[0,0.5],[1,0.5]];portConstraint=eastwest;" parent="wk1zh_JFjW3oBxZrR2lf-5" vertex="1">
          <mxGeometry y="26" width="140" height="64" as="geometry" />
        </mxCell>
        <mxCell id="wk1zh_JFjW3oBxZrR2lf-7" value="PS VR" style="swimlane;fontStyle=0;childLayout=stackLayout;horizontal=1;startSize=26;fillColor=none;horizontalStack=0;resizeParent=1;resizeParentMax=0;resizeLast=0;collapsible=1;marginBottom=0;" parent="1" vertex="1">
          <mxGeometry x="180" y="230" width="140" height="90" as="geometry" />
        </mxCell>
        <mxCell id="wk1zh_JFjW3oBxZrR2lf-8" value="Место производства&#xa;Набор&#xa;ПО&#xa;Разработчики" style="text;strokeColor=none;fillColor=none;align=left;verticalAlign=top;spacingLeft=4;spacingRight=4;overflow=hidden;rotatable=0;points=[[0,0.5],[1,0.5]];portConstraint=eastwest;" parent="wk1zh_JFjW3oBxZrR2lf-7" vertex="1">
          <mxGeometry y="26" width="140" height="64" as="geometry" />
        </mxCell>
        <mxCell id="wk1zh_JFjW3oBxZrR2lf-9" value="PS X" style="swimlane;fontStyle=0;childLayout=stackLayout;horizontal=1;startSize=26;fillColor=none;horizontalStack=0;resizeParent=1;resizeParentMax=0;resizeLast=0;collapsible=1;marginBottom=0;" parent="1" vertex="1">
          <mxGeometry x="340" y="230" width="150" height="90" as="geometry">
            <mxRectangle x="350" y="230" width="60" height="26" as="alternateBounds" />
          </mxGeometry>
        </mxCell>
        <mxCell id="wk1zh_JFjW3oBxZrR2lf-10" value="Место производства&#xa;Набор&#xa;ПО&#xa;Разработчики" style="text;strokeColor=none;fillColor=none;align=left;verticalAlign=top;spacingLeft=4;spacingRight=4;overflow=hidden;rotatable=0;points=[[0,0.5],[1,0.5]];portConstraint=eastwest;" parent="wk1zh_JFjW3oBxZrR2lf-9" vertex="1">
          <mxGeometry y="26" width="150" height="64" as="geometry" />
        </mxCell>
        <mxCell id="wk1zh_JFjW3oBxZrR2lf-11" value="PS MOVE" style="swimlane;fontStyle=0;childLayout=stackLayout;horizontal=1;startSize=26;fillColor=none;horizontalStack=0;resizeParent=1;resizeParentMax=0;resizeLast=0;collapsible=1;marginBottom=0;" parent="1" vertex="1">
          <mxGeometry x="510" y="230" width="140" height="90" as="geometry" />
        </mxCell>
        <mxCell id="wk1zh_JFjW3oBxZrR2lf-12" value="Место производства&#xa;Набор&#xa;ПО&#xa;Разработчики" style="text;strokeColor=none;fillColor=none;align=left;verticalAlign=top;spacingLeft=4;spacingRight=4;overflow=hidden;rotatable=0;points=[[0,0.5],[1,0.5]];portConstraint=eastwest;" parent="wk1zh_JFjW3oBxZrR2lf-11" vertex="1">
          <mxGeometry y="26" width="140" height="64" as="geometry" />
        </mxCell>
        <mxCell id="wk1zh_JFjW3oBxZrR2lf-13" value="Камера" style="swimlane;fontStyle=0;childLayout=stackLayout;horizontal=1;startSize=26;fillColor=none;horizontalStack=0;resizeParent=1;resizeParentMax=0;resizeLast=0;collapsible=1;marginBottom=0;" parent="1" vertex="1">
          <mxGeometry x="30" y="480" width="140" height="100" as="geometry" />
        </mxCell>
        <mxCell id="wk1zh_JFjW3oBxZrR2lf-14" value="Место производства&#xa;PS VR&#xa;ПО&#xa;Разработчики" style="text;strokeColor=none;fillColor=none;align=left;verticalAlign=top;spacingLeft=4;spacingRight=4;overflow=hidden;rotatable=0;points=[[0,0.5],[1,0.5]];portConstraint=eastwest;" parent="wk1zh_JFjW3oBxZrR2lf-13" vertex="1">
          <mxGeometry y="26" width="140" height="74" as="geometry" />
        </mxCell>
        <mxCell id="wk1zh_JFjW3oBxZrR2lf-15" value="ПО" style="swimlane;fontStyle=0;childLayout=stackLayout;horizontal=1;startSize=26;fillColor=none;horizontalStack=0;resizeParent=1;resizeParentMax=0;resizeLast=0;collapsible=1;marginBottom=0;" parent="1" vertex="1">
          <mxGeometry x="320" y="495" width="140" height="140" as="geometry" />
        </mxCell>
        <mxCell id="wk1zh_JFjW3oBxZrR2lf-16" value="Место производства&#xa;PS VR&#xa;PS X&#xa;PS MOVE&#xa;Геймпад&#xa;Камера&#xa;Разработчики&#xa;" style="text;strokeColor=none;fillColor=none;align=left;verticalAlign=top;spacingLeft=4;spacingRight=4;overflow=hidden;rotatable=0;points=[[0,0.5],[1,0.5]];portConstraint=eastwest;" parent="wk1zh_JFjW3oBxZrR2lf-15" vertex="1">
          <mxGeometry y="26" width="140" height="114" as="geometry" />
        </mxCell>
        <mxCell id="wk1zh_JFjW3oBxZrR2lf-17" value="Место производства" style="swimlane;fontStyle=0;childLayout=stackLayout;horizontal=1;startSize=26;fillColor=none;horizontalStack=0;resizeParent=1;resizeParentMax=0;resizeLast=0;collapsible=1;marginBottom=0;" parent="1" vertex="1">
          <mxGeometry x="440" y="50" width="190" height="46" as="geometry" />
        </mxCell>
        <mxCell id="Uil84AzYUFcc-cu5vtHI-20" value="Производственный персонал" style="text;html=1;align=center;verticalAlign=middle;resizable=0;points=[];autosize=1;strokeColor=none;fillColor=none;" vertex="1" parent="wk1zh_JFjW3oBxZrR2lf-17">
          <mxGeometry y="26" width="190" height="20" as="geometry" />
        </mxCell>
        <mxCell id="wk1zh_JFjW3oBxZrR2lf-20" value="Хранилище" style="swimlane;fontStyle=0;childLayout=stackLayout;horizontal=1;startSize=26;fillColor=none;horizontalStack=0;resizeParent=1;resizeParentMax=0;resizeLast=0;collapsible=1;marginBottom=0;" parent="1" vertex="1">
          <mxGeometry x="670" y="90" width="140" height="46" as="geometry" />
        </mxCell>
        <mxCell id="wk1zh_JFjW3oBxZrR2lf-21" value="Место производства" style="text;html=1;align=center;verticalAlign=middle;resizable=0;points=[];autosize=1;strokeColor=none;fillColor=none;" parent="wk1zh_JFjW3oBxZrR2lf-20" vertex="1">
          <mxGeometry y="26" width="140" height="20" as="geometry" />
        </mxCell>
        <mxCell id="wk1zh_JFjW3oBxZrR2lf-24" value="Комплектующие" style="swimlane;fontStyle=0;childLayout=stackLayout;horizontal=1;startSize=26;fillColor=none;horizontalStack=0;resizeParent=1;resizeParentMax=0;resizeLast=0;collapsible=1;marginBottom=0;" parent="1" vertex="1">
          <mxGeometry x="710" y="382" width="140" height="80" as="geometry" />
        </mxCell>
        <mxCell id="wk1zh_JFjW3oBxZrR2lf-25" value="Хранилище&#xa;Поставщик&#xa;Инвесторы" style="text;strokeColor=none;fillColor=none;align=left;verticalAlign=top;spacingLeft=4;spacingRight=4;overflow=hidden;rotatable=0;points=[[0,0.5],[1,0.5]];portConstraint=eastwest;" parent="wk1zh_JFjW3oBxZrR2lf-24" vertex="1">
          <mxGeometry y="26" width="140" height="54" as="geometry" />
        </mxCell>
        <mxCell id="wk1zh_JFjW3oBxZrR2lf-26" value="Поставщик" style="swimlane;fontStyle=0;childLayout=stackLayout;horizontal=1;startSize=26;fillColor=none;horizontalStack=0;resizeParent=1;resizeParentMax=0;resizeLast=0;collapsible=1;marginBottom=0;" parent="1" vertex="1">
          <mxGeometry x="880" y="220" width="140" height="52" as="geometry" />
        </mxCell>
        <mxCell id="wk1zh_JFjW3oBxZrR2lf-28" value="Форм-фактор" style="swimlane;fontStyle=0;childLayout=stackLayout;horizontal=1;startSize=26;fillColor=none;horizontalStack=0;resizeParent=1;resizeParentMax=0;resizeLast=0;collapsible=1;marginBottom=0;" parent="1" vertex="1">
          <mxGeometry x="530" y="560" width="140" height="46" as="geometry" />
        </mxCell>
        <mxCell id="Uil84AzYUFcc-cu5vtHI-4" value="Комплектующие" style="text;html=1;align=center;verticalAlign=middle;resizable=0;points=[];autosize=1;strokeColor=none;fillColor=none;" vertex="1" parent="wk1zh_JFjW3oBxZrR2lf-28">
          <mxGeometry y="26" width="140" height="20" as="geometry" />
        </mxCell>
        <mxCell id="wk1zh_JFjW3oBxZrR2lf-30" value="" style="endArrow=none;html=1;exitX=0.75;exitY=0;exitDx=0;exitDy=0;entryX=0.279;entryY=0.971;entryDx=0;entryDy=0;entryPerimeter=0;" parent="1" source="wk1zh_JFjW3oBxZrR2lf-5" target="wk1zh_JFjW3oBxZrR2lf-3" edge="1">
          <mxGeometry width="50" height="50" relative="1" as="geometry">
            <mxPoint x="270" y="430" as="sourcePoint" />
            <mxPoint x="320" y="380" as="targetPoint" />
          </mxGeometry>
        </mxCell>
        <mxCell id="wk1zh_JFjW3oBxZrR2lf-31" value="" style="endArrow=none;html=1;exitX=0.5;exitY=0;exitDx=0;exitDy=0;entryX=0.371;entryY=0.971;entryDx=0;entryDy=0;entryPerimeter=0;" parent="1" source="wk1zh_JFjW3oBxZrR2lf-7" target="wk1zh_JFjW3oBxZrR2lf-3" edge="1">
          <mxGeometry width="50" height="50" relative="1" as="geometry">
            <mxPoint x="125" y="240" as="sourcePoint" />
            <mxPoint x="249.05999999999995" y="181.24599999999998" as="targetPoint" />
          </mxGeometry>
        </mxCell>
        <mxCell id="wk1zh_JFjW3oBxZrR2lf-32" value="" style="endArrow=none;html=1;exitX=0.5;exitY=0;exitDx=0;exitDy=0;" parent="1" source="wk1zh_JFjW3oBxZrR2lf-9" target="wk1zh_JFjW3oBxZrR2lf-3" edge="1">
          <mxGeometry width="50" height="50" relative="1" as="geometry">
            <mxPoint x="135" y="250" as="sourcePoint" />
            <mxPoint x="259.05999999999995" y="191.24599999999998" as="targetPoint" />
          </mxGeometry>
        </mxCell>
        <mxCell id="wk1zh_JFjW3oBxZrR2lf-33" value="" style="endArrow=none;html=1;exitX=0.25;exitY=0;exitDx=0;exitDy=0;" parent="1" source="wk1zh_JFjW3oBxZrR2lf-11" target="wk1zh_JFjW3oBxZrR2lf-3" edge="1">
          <mxGeometry width="50" height="50" relative="1" as="geometry">
            <mxPoint x="145" y="260" as="sourcePoint" />
            <mxPoint x="269.05999999999995" y="201.24599999999998" as="targetPoint" />
          </mxGeometry>
        </mxCell>
        <mxCell id="wk1zh_JFjW3oBxZrR2lf-35" value="" style="endArrow=none;html=1;exitX=0.479;exitY=1.074;exitDx=0;exitDy=0;exitPerimeter=0;" parent="1" source="wk1zh_JFjW3oBxZrR2lf-8" target="wk1zh_JFjW3oBxZrR2lf-13" edge="1">
          <mxGeometry width="50" height="50" relative="1" as="geometry">
            <mxPoint x="155" y="270" as="sourcePoint" />
            <mxPoint x="279.05999999999995" y="211.24599999999998" as="targetPoint" />
          </mxGeometry>
        </mxCell>
        <mxCell id="wk1zh_JFjW3oBxZrR2lf-36" value="" style="endArrow=none;html=1;exitX=0.521;exitY=1.004;exitDx=0;exitDy=0;entryX=0.25;entryY=0;entryDx=0;entryDy=0;exitPerimeter=0;" parent="1" source="wk1zh_JFjW3oBxZrR2lf-6" target="wk1zh_JFjW3oBxZrR2lf-15" edge="1">
          <mxGeometry width="50" height="50" relative="1" as="geometry">
            <mxPoint x="165" y="280" as="sourcePoint" />
            <mxPoint x="289.05999999999995" y="221.24599999999998" as="targetPoint" />
          </mxGeometry>
        </mxCell>
        <mxCell id="wk1zh_JFjW3oBxZrR2lf-37" value="" style="endArrow=none;html=1;exitX=0.621;exitY=1.006;exitDx=0;exitDy=0;entryX=0.25;entryY=0;entryDx=0;entryDy=0;exitPerimeter=0;" parent="1" source="wk1zh_JFjW3oBxZrR2lf-8" target="wk1zh_JFjW3oBxZrR2lf-15" edge="1">
          <mxGeometry width="50" height="50" relative="1" as="geometry">
            <mxPoint x="175" y="290" as="sourcePoint" />
            <mxPoint x="299.05999999999995" y="231.24599999999998" as="targetPoint" />
          </mxGeometry>
        </mxCell>
        <mxCell id="wk1zh_JFjW3oBxZrR2lf-38" value="" style="endArrow=none;html=1;exitX=1.014;exitY=0.324;exitDx=0;exitDy=0;entryX=-0.007;entryY=0.253;entryDx=0;entryDy=0;entryPerimeter=0;exitPerimeter=0;" parent="1" source="wk1zh_JFjW3oBxZrR2lf-14" target="wk1zh_JFjW3oBxZrR2lf-16" edge="1">
          <mxGeometry width="50" height="50" relative="1" as="geometry">
            <mxPoint x="185" y="300" as="sourcePoint" />
            <mxPoint x="309.05999999999995" y="241.24599999999998" as="targetPoint" />
          </mxGeometry>
        </mxCell>
        <mxCell id="wk1zh_JFjW3oBxZrR2lf-39" value="" style="endArrow=none;html=1;entryX=0.379;entryY=1.051;entryDx=0;entryDy=0;entryPerimeter=0;" parent="1" source="wk1zh_JFjW3oBxZrR2lf-15" target="wk1zh_JFjW3oBxZrR2lf-10" edge="1">
          <mxGeometry width="50" height="50" relative="1" as="geometry">
            <mxPoint x="195" y="310" as="sourcePoint" />
            <mxPoint x="319.05999999999995" y="251.24599999999998" as="targetPoint" />
          </mxGeometry>
        </mxCell>
        <mxCell id="wk1zh_JFjW3oBxZrR2lf-40" value="" style="endArrow=none;html=1;exitX=0.807;exitY=-0.007;exitDx=0;exitDy=0;entryX=0.4;entryY=0.983;entryDx=0;entryDy=0;entryPerimeter=0;exitPerimeter=0;" parent="1" source="wk1zh_JFjW3oBxZrR2lf-15" target="wk1zh_JFjW3oBxZrR2lf-12" edge="1">
          <mxGeometry width="50" height="50" relative="1" as="geometry">
            <mxPoint x="205" y="320" as="sourcePoint" />
            <mxPoint x="329.05999999999995" y="261.246" as="targetPoint" />
          </mxGeometry>
        </mxCell>
        <mxCell id="wk1zh_JFjW3oBxZrR2lf-41" value="" style="endArrow=none;html=1;exitX=0;exitY=0.5;exitDx=0;exitDy=0;entryX=1;entryY=0.25;entryDx=0;entryDy=0;" parent="1" source="wk1zh_JFjW3oBxZrR2lf-17" target="wk1zh_JFjW3oBxZrR2lf-1" edge="1">
          <mxGeometry width="50" height="50" relative="1" as="geometry">
            <mxPoint x="215" y="330" as="sourcePoint" />
            <mxPoint x="339.05999999999995" y="271.246" as="targetPoint" />
          </mxGeometry>
        </mxCell>
        <mxCell id="wk1zh_JFjW3oBxZrR2lf-42" value="" style="endArrow=none;html=1;exitX=0;exitY=0.25;exitDx=0;exitDy=0;entryX=1;entryY=0.75;entryDx=0;entryDy=0;" parent="1" source="wk1zh_JFjW3oBxZrR2lf-20" target="wk1zh_JFjW3oBxZrR2lf-17" edge="1">
          <mxGeometry width="50" height="50" relative="1" as="geometry">
            <mxPoint x="225" y="340" as="sourcePoint" />
            <mxPoint x="349.05999999999995" y="281.246" as="targetPoint" />
          </mxGeometry>
        </mxCell>
        <mxCell id="wk1zh_JFjW3oBxZrR2lf-43" value="" style="endArrow=none;html=1;exitX=0.55;exitY=-0.047;exitDx=0;exitDy=0;exitPerimeter=0;" parent="1" source="wk1zh_JFjW3oBxZrR2lf-24" target="wk1zh_JFjW3oBxZrR2lf-21" edge="1">
          <mxGeometry width="50" height="50" relative="1" as="geometry">
            <mxPoint x="235" y="350" as="sourcePoint" />
            <mxPoint x="359.05999999999995" y="291.246" as="targetPoint" />
          </mxGeometry>
        </mxCell>
        <mxCell id="wk1zh_JFjW3oBxZrR2lf-44" value="" style="endArrow=none;html=1;entryX=1;entryY=0.5;entryDx=0;entryDy=0;exitX=0.5;exitY=1;exitDx=0;exitDy=0;" parent="1" source="wk1zh_JFjW3oBxZrR2lf-26" target="wk1zh_JFjW3oBxZrR2lf-25" edge="1">
          <mxGeometry width="50" height="50" relative="1" as="geometry">
            <mxPoint x="965" y="210" as="sourcePoint" />
            <mxPoint x="369.05999999999995" y="301.246" as="targetPoint" />
          </mxGeometry>
        </mxCell>
        <mxCell id="wk1zh_JFjW3oBxZrR2lf-45" value="Feedback" style="swimlane;fontStyle=0;childLayout=stackLayout;horizontal=1;startSize=26;fillColor=none;horizontalStack=0;resizeParent=1;resizeParentMax=0;resizeLast=0;collapsible=1;marginBottom=0;" parent="1" vertex="1">
          <mxGeometry x="-20" y="-160" width="140" height="46" as="geometry" />
        </mxCell>
        <mxCell id="Uil84AzYUFcc-cu5vtHI-38" value="Целевая аудитория" style="text;html=1;align=center;verticalAlign=middle;resizable=0;points=[];autosize=1;strokeColor=none;fillColor=none;" vertex="1" parent="wk1zh_JFjW3oBxZrR2lf-45">
          <mxGeometry y="26" width="140" height="20" as="geometry" />
        </mxCell>
        <mxCell id="wk1zh_JFjW3oBxZrR2lf-47" value="" style="endArrow=none;html=1;exitX=1;exitY=0.5;exitDx=0;exitDy=0;entryX=0.004;entryY=0.352;entryDx=0;entryDy=0;entryPerimeter=0;" parent="1" source="wk1zh_JFjW3oBxZrR2lf-45" edge="1" target="wk1zh_JFjW3oBxZrR2lf-3">
          <mxGeometry width="50" height="50" relative="1" as="geometry">
            <mxPoint x="520" y="330" as="sourcePoint" />
            <mxPoint x="200" y="130" as="targetPoint" />
          </mxGeometry>
        </mxCell>
        <mxCell id="wk1zh_JFjW3oBxZrR2lf-50" value="" style="group" parent="1" vertex="1" connectable="0">
          <mxGeometry x="-850" y="-160" width="220" height="66" as="geometry" />
        </mxCell>
        <mxCell id="wk1zh_JFjW3oBxZrR2lf-48" value="Аналитический отдел" style="swimlane;fontStyle=0;childLayout=stackLayout;horizontal=1;startSize=26;fillColor=none;horizontalStack=0;resizeParent=1;resizeParentMax=0;resizeLast=0;collapsible=1;marginBottom=0;" parent="wk1zh_JFjW3oBxZrR2lf-50" vertex="1">
          <mxGeometry width="220" height="76" as="geometry" />
        </mxCell>
        <mxCell id="wk1zh_JFjW3oBxZrR2lf-49" value="Feedback&lt;br&gt;Сотрудники&lt;br&gt;Отчеты о результатах анализа рынка" style="text;html=1;align=center;verticalAlign=middle;resizable=0;points=[];autosize=1;strokeColor=none;fillColor=none;" parent="wk1zh_JFjW3oBxZrR2lf-48" vertex="1">
          <mxGeometry y="26" width="220" height="50" as="geometry" />
        </mxCell>
        <mxCell id="wk1zh_JFjW3oBxZrR2lf-51" value="" style="endArrow=none;html=1;exitX=1;exitY=0.5;exitDx=0;exitDy=0;entryX=0;entryY=0.5;entryDx=0;entryDy=0;" parent="1" source="wk1zh_JFjW3oBxZrR2lf-48" target="wk1zh_JFjW3oBxZrR2lf-45" edge="1">
          <mxGeometry width="50" height="50" relative="1" as="geometry">
            <mxPoint x="330" y="330" as="sourcePoint" />
            <mxPoint x="380" y="280" as="targetPoint" />
          </mxGeometry>
        </mxCell>
        <mxCell id="wk1zh_JFjW3oBxZrR2lf-52" value="" style="group" parent="1" vertex="1" connectable="0">
          <mxGeometry x="560" y="846" width="140" height="60" as="geometry" />
        </mxCell>
        <mxCell id="wk1zh_JFjW3oBxZrR2lf-53" value="Инвесторы" style="swimlane;fontStyle=0;childLayout=stackLayout;horizontal=1;startSize=26;fillColor=none;horizontalStack=0;resizeParent=1;resizeParentMax=0;resizeLast=0;collapsible=1;marginBottom=0;" parent="wk1zh_JFjW3oBxZrR2lf-52" vertex="1">
          <mxGeometry width="140" height="60" as="geometry" />
        </mxCell>
        <mxCell id="wk1zh_JFjW3oBxZrR2lf-55" value="" style="group" parent="1" vertex="1" connectable="0">
          <mxGeometry x="140" y="680" width="140" height="60" as="geometry" />
        </mxCell>
        <mxCell id="wk1zh_JFjW3oBxZrR2lf-56" value="Дизайнеры" style="swimlane;fontStyle=0;childLayout=stackLayout;horizontal=1;startSize=26;fillColor=none;horizontalStack=0;resizeParent=1;resizeParentMax=0;resizeLast=0;collapsible=1;marginBottom=0;" parent="wk1zh_JFjW3oBxZrR2lf-55" vertex="1">
          <mxGeometry width="140" height="56" as="geometry" />
        </mxCell>
        <mxCell id="Uil84AzYUFcc-cu5vtHI-12" value="Сотрудники&lt;br&gt;Аналитический отдел" style="text;html=1;align=center;verticalAlign=middle;resizable=0;points=[];autosize=1;strokeColor=none;fillColor=none;" vertex="1" parent="wk1zh_JFjW3oBxZrR2lf-56">
          <mxGeometry y="26" width="140" height="30" as="geometry" />
        </mxCell>
        <mxCell id="wk1zh_JFjW3oBxZrR2lf-57" value="" style="group" parent="1" vertex="1" connectable="0">
          <mxGeometry x="-422.5" y="750" width="140" height="60" as="geometry" />
        </mxCell>
        <mxCell id="wk1zh_JFjW3oBxZrR2lf-58" value="Прототипы" style="swimlane;fontStyle=0;childLayout=stackLayout;horizontal=1;startSize=26;fillColor=none;horizontalStack=0;resizeParent=1;resizeParentMax=0;resizeLast=0;collapsible=1;marginBottom=0;" parent="wk1zh_JFjW3oBxZrR2lf-57" vertex="1">
          <mxGeometry width="140" height="56" as="geometry" />
        </mxCell>
        <mxCell id="Uil84AzYUFcc-cu5vtHI-9" value="Инвесторы&lt;br&gt;Архив" style="text;html=1;align=center;verticalAlign=middle;resizable=0;points=[];autosize=1;strokeColor=none;fillColor=none;" vertex="1" parent="wk1zh_JFjW3oBxZrR2lf-58">
          <mxGeometry y="26" width="140" height="30" as="geometry" />
        </mxCell>
        <mxCell id="wk1zh_JFjW3oBxZrR2lf-60" value="" style="group" parent="1" vertex="1" connectable="0">
          <mxGeometry x="-410" y="382" width="140" height="60" as="geometry" />
        </mxCell>
        <mxCell id="wk1zh_JFjW3oBxZrR2lf-61" value="Сотрудники" style="swimlane;fontStyle=0;childLayout=stackLayout;horizontal=1;startSize=26;fillColor=none;horizontalStack=0;resizeParent=1;resizeParentMax=0;resizeLast=0;collapsible=1;marginBottom=0;" parent="wk1zh_JFjW3oBxZrR2lf-60" vertex="1">
          <mxGeometry width="140" height="60" as="geometry" />
        </mxCell>
        <mxCell id="Uil84AzYUFcc-cu5vtHI-5" value="" style="endArrow=none;html=1;exitX=0.5;exitY=0;exitDx=0;exitDy=0;entryX=0;entryY=0.5;entryDx=0;entryDy=0;" edge="1" parent="1" source="wk1zh_JFjW3oBxZrR2lf-28" target="wk1zh_JFjW3oBxZrR2lf-25">
          <mxGeometry width="50" height="50" relative="1" as="geometry">
            <mxPoint x="270" y="410" as="sourcePoint" />
            <mxPoint x="320" y="360" as="targetPoint" />
          </mxGeometry>
        </mxCell>
        <mxCell id="Uil84AzYUFcc-cu5vtHI-6" value="" style="group" vertex="1" connectable="0" parent="1">
          <mxGeometry x="440" y="650" width="140" height="90" as="geometry" />
        </mxCell>
        <mxCell id="wk1zh_JFjW3oBxZrR2lf-19" value="Дизайн" style="swimlane;fontStyle=0;childLayout=stackLayout;horizontal=1;startSize=26;fillColor=none;horizontalStack=0;resizeParent=1;resizeParentMax=0;resizeLast=0;collapsible=1;marginBottom=0;" parent="Uil84AzYUFcc-cu5vtHI-6" vertex="1">
          <mxGeometry width="130" height="76" as="geometry" />
        </mxCell>
        <mxCell id="Uil84AzYUFcc-cu5vtHI-3" value="Дизайнеры&lt;br&gt;Форм-фактор&lt;br&gt;Инвесторы" style="text;html=1;align=center;verticalAlign=middle;resizable=0;points=[];autosize=1;strokeColor=none;fillColor=none;" vertex="1" parent="wk1zh_JFjW3oBxZrR2lf-19">
          <mxGeometry y="26" width="130" height="50" as="geometry" />
        </mxCell>
        <mxCell id="Uil84AzYUFcc-cu5vtHI-7" value="" style="endArrow=none;html=1;entryX=0.517;entryY=1.103;entryDx=0;entryDy=0;entryPerimeter=0;exitX=0.5;exitY=0;exitDx=0;exitDy=0;" edge="1" parent="1" source="wk1zh_JFjW3oBxZrR2lf-19" target="Uil84AzYUFcc-cu5vtHI-4">
          <mxGeometry width="50" height="50" relative="1" as="geometry">
            <mxPoint x="270" y="410" as="sourcePoint" />
            <mxPoint x="320" y="360" as="targetPoint" />
          </mxGeometry>
        </mxCell>
        <mxCell id="Uil84AzYUFcc-cu5vtHI-8" value="" style="endArrow=none;html=1;entryX=0;entryY=0.5;entryDx=0;entryDy=0;exitX=1;exitY=0.5;exitDx=0;exitDy=0;" edge="1" parent="1" source="wk1zh_JFjW3oBxZrR2lf-56" target="wk1zh_JFjW3oBxZrR2lf-19">
          <mxGeometry width="50" height="50" relative="1" as="geometry">
            <mxPoint x="270" y="410" as="sourcePoint" />
            <mxPoint x="320" y="360" as="targetPoint" />
          </mxGeometry>
        </mxCell>
        <mxCell id="Uil84AzYUFcc-cu5vtHI-10" value="" style="endArrow=none;html=1;entryX=1;entryY=0.5;entryDx=0;entryDy=0;exitX=0;exitY=0.75;exitDx=0;exitDy=0;" edge="1" parent="1" source="wk1zh_JFjW3oBxZrR2lf-53" target="wk1zh_JFjW3oBxZrR2lf-58">
          <mxGeometry width="50" height="50" relative="1" as="geometry">
            <mxPoint x="270" y="400" as="sourcePoint" />
            <mxPoint x="320" y="350" as="targetPoint" />
          </mxGeometry>
        </mxCell>
        <mxCell id="Uil84AzYUFcc-cu5vtHI-11" value="" style="endArrow=none;html=1;entryX=0.5;entryY=0;entryDx=0;entryDy=0;exitX=1.005;exitY=0.194;exitDx=0;exitDy=0;exitPerimeter=0;" edge="1" parent="1" source="Uil84AzYUFcc-cu5vtHI-3" target="wk1zh_JFjW3oBxZrR2lf-53">
          <mxGeometry width="50" height="50" relative="1" as="geometry">
            <mxPoint x="270" y="400" as="sourcePoint" />
            <mxPoint x="320" y="350" as="targetPoint" />
          </mxGeometry>
        </mxCell>
        <mxCell id="Uil84AzYUFcc-cu5vtHI-13" value="" style="endArrow=none;html=1;entryX=0.462;entryY=1.049;entryDx=0;entryDy=0;entryPerimeter=0;exitX=0.5;exitY=0;exitDx=0;exitDy=0;" edge="1" parent="1" source="wk1zh_JFjW3oBxZrR2lf-61" target="wk1zh_JFjW3oBxZrR2lf-49">
          <mxGeometry width="50" height="50" relative="1" as="geometry">
            <mxPoint x="270" y="390" as="sourcePoint" />
            <mxPoint x="320" y="340" as="targetPoint" />
          </mxGeometry>
        </mxCell>
        <mxCell id="Uil84AzYUFcc-cu5vtHI-14" value="" style="endArrow=none;html=1;entryX=0.5;entryY=1;entryDx=0;entryDy=0;exitX=0;exitY=0.5;exitDx=0;exitDy=0;" edge="1" parent="1" source="wk1zh_JFjW3oBxZrR2lf-56" target="wk1zh_JFjW3oBxZrR2lf-61">
          <mxGeometry width="50" height="50" relative="1" as="geometry">
            <mxPoint x="270" y="390" as="sourcePoint" />
            <mxPoint x="320" y="340" as="targetPoint" />
          </mxGeometry>
        </mxCell>
        <mxCell id="Uil84AzYUFcc-cu5vtHI-15" value="" style="group" vertex="1" connectable="0" parent="1">
          <mxGeometry x="-560" y="435" width="140" height="60" as="geometry" />
        </mxCell>
        <mxCell id="Uil84AzYUFcc-cu5vtHI-16" value="Разработчики" style="swimlane;fontStyle=0;childLayout=stackLayout;horizontal=1;startSize=26;fillColor=none;horizontalStack=0;resizeParent=1;resizeParentMax=0;resizeLast=0;collapsible=1;marginBottom=0;" vertex="1" parent="Uil84AzYUFcc-cu5vtHI-15">
          <mxGeometry width="140" height="46" as="geometry" />
        </mxCell>
        <mxCell id="Uil84AzYUFcc-cu5vtHI-24" value="Сотрудники" style="text;html=1;align=center;verticalAlign=middle;resizable=0;points=[];autosize=1;strokeColor=none;fillColor=none;" vertex="1" parent="Uil84AzYUFcc-cu5vtHI-16">
          <mxGeometry y="26" width="140" height="20" as="geometry" />
        </mxCell>
        <mxCell id="Uil84AzYUFcc-cu5vtHI-17" value="" style="group" vertex="1" connectable="0" parent="1">
          <mxGeometry x="-450" y="510" width="180" height="60" as="geometry" />
        </mxCell>
        <mxCell id="Uil84AzYUFcc-cu5vtHI-18" value="Производственный персонал" style="swimlane;fontStyle=0;childLayout=stackLayout;horizontal=1;startSize=26;fillColor=none;horizontalStack=0;resizeParent=1;resizeParentMax=0;resizeLast=0;collapsible=1;marginBottom=0;" vertex="1" parent="Uil84AzYUFcc-cu5vtHI-17">
          <mxGeometry width="180" height="46" as="geometry" />
        </mxCell>
        <mxCell id="Uil84AzYUFcc-cu5vtHI-23" value="Сотрудники" style="text;html=1;align=center;verticalAlign=middle;resizable=0;points=[];autosize=1;strokeColor=none;fillColor=none;" vertex="1" parent="Uil84AzYUFcc-cu5vtHI-18">
          <mxGeometry y="26" width="180" height="20" as="geometry" />
        </mxCell>
        <mxCell id="Uil84AzYUFcc-cu5vtHI-21" value="" style="group" vertex="1" connectable="0" parent="1">
          <mxGeometry x="-570" y="310" width="140" height="60" as="geometry" />
        </mxCell>
        <mxCell id="Uil84AzYUFcc-cu5vtHI-22" value="Рекламщики" style="swimlane;fontStyle=0;childLayout=stackLayout;horizontal=1;startSize=26;fillColor=none;horizontalStack=0;resizeParent=1;resizeParentMax=0;resizeLast=0;collapsible=1;marginBottom=0;" vertex="1" parent="Uil84AzYUFcc-cu5vtHI-21">
          <mxGeometry width="140" height="56" as="geometry" />
        </mxCell>
        <mxCell id="Uil84AzYUFcc-cu5vtHI-25" value="Сотрудники&lt;br&gt;Аналитический отдел" style="text;html=1;align=center;verticalAlign=middle;resizable=0;points=[];autosize=1;strokeColor=none;fillColor=none;" vertex="1" parent="Uil84AzYUFcc-cu5vtHI-22">
          <mxGeometry y="26" width="140" height="30" as="geometry" />
        </mxCell>
        <mxCell id="Uil84AzYUFcc-cu5vtHI-26" value="" style="endArrow=none;html=1;entryX=0.25;entryY=1;entryDx=0;entryDy=0;exitX=0.5;exitY=0;exitDx=0;exitDy=0;" edge="1" parent="1" source="Uil84AzYUFcc-cu5vtHI-18" target="wk1zh_JFjW3oBxZrR2lf-61">
          <mxGeometry width="50" height="50" relative="1" as="geometry">
            <mxPoint x="270" y="390" as="sourcePoint" />
            <mxPoint x="320" y="340" as="targetPoint" />
          </mxGeometry>
        </mxCell>
        <mxCell id="Uil84AzYUFcc-cu5vtHI-27" value="" style="endArrow=none;html=1;entryX=0;entryY=0.75;entryDx=0;entryDy=0;exitX=0.75;exitY=0;exitDx=0;exitDy=0;" edge="1" parent="1" source="Uil84AzYUFcc-cu5vtHI-16" target="wk1zh_JFjW3oBxZrR2lf-61">
          <mxGeometry width="50" height="50" relative="1" as="geometry">
            <mxPoint x="270" y="390" as="sourcePoint" />
            <mxPoint x="320" y="340" as="targetPoint" />
          </mxGeometry>
        </mxCell>
        <mxCell id="Uil84AzYUFcc-cu5vtHI-28" value="" style="endArrow=none;html=1;entryX=0.538;entryY=0.985;entryDx=0;entryDy=0;entryPerimeter=0;exitX=0;exitY=0.25;exitDx=0;exitDy=0;" edge="1" parent="1" source="wk1zh_JFjW3oBxZrR2lf-61" target="Uil84AzYUFcc-cu5vtHI-25">
          <mxGeometry width="50" height="50" relative="1" as="geometry">
            <mxPoint x="270" y="390" as="sourcePoint" />
            <mxPoint x="320" y="340" as="targetPoint" />
          </mxGeometry>
        </mxCell>
        <mxCell id="Uil84AzYUFcc-cu5vtHI-31" value="" style="group" vertex="1" connectable="0" parent="1">
          <mxGeometry x="-350" width="140" height="60" as="geometry" />
        </mxCell>
        <mxCell id="Uil84AzYUFcc-cu5vtHI-32" value="Население" style="swimlane;fontStyle=0;childLayout=stackLayout;horizontal=1;startSize=26;fillColor=none;horizontalStack=0;resizeParent=1;resizeParentMax=0;resizeLast=0;collapsible=1;marginBottom=0;" vertex="1" parent="Uil84AzYUFcc-cu5vtHI-31">
          <mxGeometry width="140" height="60" as="geometry" />
        </mxCell>
        <mxCell id="Uil84AzYUFcc-cu5vtHI-34" value="" style="endArrow=none;html=1;entryX=0.5;entryY=1;entryDx=0;entryDy=0;exitX=0.5;exitY=0;exitDx=0;exitDy=0;" edge="1" parent="1" source="Uil84AzYUFcc-cu5vtHI-30" target="Uil84AzYUFcc-cu5vtHI-32">
          <mxGeometry width="50" height="50" relative="1" as="geometry">
            <mxPoint x="180" y="216" as="sourcePoint" />
            <mxPoint x="230" y="166" as="targetPoint" />
          </mxGeometry>
        </mxCell>
        <mxCell id="Uil84AzYUFcc-cu5vtHI-30" value="Целевая аудитория" style="swimlane;fontStyle=0;childLayout=stackLayout;horizontal=1;startSize=26;fillColor=none;horizontalStack=0;resizeParent=1;resizeParentMax=0;resizeLast=0;collapsible=1;marginBottom=0;" vertex="1" parent="1">
          <mxGeometry x="-210" y="90" width="140" height="56" as="geometry" />
        </mxCell>
        <mxCell id="Uil84AzYUFcc-cu5vtHI-49" value="Население&lt;br&gt;Фокус-группа" style="text;html=1;align=center;verticalAlign=middle;resizable=0;points=[];autosize=1;strokeColor=none;fillColor=none;" vertex="1" parent="Uil84AzYUFcc-cu5vtHI-30">
          <mxGeometry y="26" width="140" height="30" as="geometry" />
        </mxCell>
        <mxCell id="Uil84AzYUFcc-cu5vtHI-39" value="" style="group" vertex="1" connectable="0" parent="1">
          <mxGeometry x="-300" y="-100" width="240" height="64" as="geometry" />
        </mxCell>
        <mxCell id="Uil84AzYUFcc-cu5vtHI-35" value="" style="group" vertex="1" connectable="0" parent="Uil84AzYUFcc-cu5vtHI-39">
          <mxGeometry width="240" height="64" as="geometry" />
        </mxCell>
        <mxCell id="Uil84AzYUFcc-cu5vtHI-36" value="Отчеты о результатах анализа рынка" style="swimlane;fontStyle=0;childLayout=stackLayout;horizontal=1;startSize=26;fillColor=none;horizontalStack=0;resizeParent=1;resizeParentMax=0;resizeLast=0;collapsible=1;marginBottom=0;" vertex="1" parent="Uil84AzYUFcc-cu5vtHI-35">
          <mxGeometry width="240" height="64" as="geometry" />
        </mxCell>
        <mxCell id="Uil84AzYUFcc-cu5vtHI-37" value="Целевая аудитория" style="text;html=1;align=center;verticalAlign=middle;resizable=0;points=[];autosize=1;strokeColor=none;fillColor=none;" vertex="1" parent="Uil84AzYUFcc-cu5vtHI-39">
          <mxGeometry x="50" y="34" width="120" height="20" as="geometry" />
        </mxCell>
        <mxCell id="Uil84AzYUFcc-cu5vtHI-40" value="" style="endArrow=none;html=1;exitX=1;exitY=0.25;exitDx=0;exitDy=0;" edge="1" parent="1" source="Uil84AzYUFcc-cu5vtHI-30" target="Uil84AzYUFcc-cu5vtHI-38">
          <mxGeometry width="50" height="50" relative="1" as="geometry">
            <mxPoint x="-150" y="66" as="sourcePoint" />
            <mxPoint x="-100" y="16" as="targetPoint" />
          </mxGeometry>
        </mxCell>
        <mxCell id="Uil84AzYUFcc-cu5vtHI-41" value="" style="endArrow=none;html=1;exitX=0.75;exitY=0;exitDx=0;exitDy=0;entryX=0.5;entryY=1;entryDx=0;entryDy=0;" edge="1" parent="1" source="Uil84AzYUFcc-cu5vtHI-30" target="Uil84AzYUFcc-cu5vtHI-36">
          <mxGeometry width="50" height="50" relative="1" as="geometry">
            <mxPoint x="210" y="-20" as="sourcePoint" />
            <mxPoint x="260" y="-70" as="targetPoint" />
          </mxGeometry>
        </mxCell>
        <mxCell id="Uil84AzYUFcc-cu5vtHI-42" value="" style="endArrow=none;html=1;entryX=0.658;entryY=1.002;entryDx=0;entryDy=0;entryPerimeter=0;exitX=0;exitY=0.25;exitDx=0;exitDy=0;" edge="1" parent="1" source="Uil84AzYUFcc-cu5vtHI-36" target="wk1zh_JFjW3oBxZrR2lf-49">
          <mxGeometry width="50" height="50" relative="1" as="geometry">
            <mxPoint x="270" y="30" as="sourcePoint" />
            <mxPoint x="320" y="-20" as="targetPoint" />
          </mxGeometry>
        </mxCell>
        <mxCell id="Uil84AzYUFcc-cu5vtHI-43" value="" style="group" vertex="1" connectable="0" parent="1">
          <mxGeometry x="-430" y="100" width="140" height="60" as="geometry" />
        </mxCell>
        <mxCell id="Uil84AzYUFcc-cu5vtHI-44" value="Фокус-группа" style="swimlane;fontStyle=0;childLayout=stackLayout;horizontal=1;startSize=26;fillColor=none;horizontalStack=0;resizeParent=1;resizeParentMax=0;resizeLast=0;collapsible=1;marginBottom=0;" vertex="1" parent="Uil84AzYUFcc-cu5vtHI-43">
          <mxGeometry width="140" height="46" as="geometry" />
        </mxCell>
        <mxCell id="Uil84AzYUFcc-cu5vtHI-48" value="Личности" style="text;html=1;align=center;verticalAlign=middle;resizable=0;points=[];autosize=1;strokeColor=none;fillColor=none;" vertex="1" parent="Uil84AzYUFcc-cu5vtHI-44">
          <mxGeometry y="26" width="140" height="20" as="geometry" />
        </mxCell>
        <mxCell id="Uil84AzYUFcc-cu5vtHI-45" value="" style="group" vertex="1" connectable="0" parent="1">
          <mxGeometry x="-310" y="185" width="140" height="60" as="geometry" />
        </mxCell>
        <mxCell id="Uil84AzYUFcc-cu5vtHI-46" value="Личности" style="swimlane;fontStyle=0;childLayout=stackLayout;horizontal=1;startSize=26;fillColor=none;horizontalStack=0;resizeParent=1;resizeParentMax=0;resizeLast=0;collapsible=1;marginBottom=0;" vertex="1" parent="Uil84AzYUFcc-cu5vtHI-45">
          <mxGeometry width="140" height="60" as="geometry" />
        </mxCell>
        <mxCell id="Uil84AzYUFcc-cu5vtHI-50" value="" style="endArrow=none;html=1;entryX=0.494;entryY=1.179;entryDx=0;entryDy=0;entryPerimeter=0;exitX=0.5;exitY=0;exitDx=0;exitDy=0;" edge="1" parent="1" source="Uil84AzYUFcc-cu5vtHI-46" target="Uil84AzYUFcc-cu5vtHI-48">
          <mxGeometry width="50" height="50" relative="1" as="geometry">
            <mxPoint x="-20" y="280" as="sourcePoint" />
            <mxPoint x="30" y="230" as="targetPoint" />
          </mxGeometry>
        </mxCell>
        <mxCell id="Uil84AzYUFcc-cu5vtHI-51" value="" style="endArrow=none;html=1;exitX=0.984;exitY=-0.179;exitDx=0;exitDy=0;exitPerimeter=0;entryX=0.014;entryY=0.067;entryDx=0;entryDy=0;entryPerimeter=0;" edge="1" parent="1" source="Uil84AzYUFcc-cu5vtHI-48" target="Uil84AzYUFcc-cu5vtHI-49">
          <mxGeometry width="50" height="50" relative="1" as="geometry">
            <mxPoint x="-20" y="280" as="sourcePoint" />
            <mxPoint x="30" y="230" as="targetPoint" />
          </mxGeometry>
        </mxCell>
        <mxCell id="Uil84AzYUFcc-cu5vtHI-53" value="Консоль прошлого поколения " style="swimlane;fontStyle=0;childLayout=stackLayout;horizontal=1;startSize=26;fillColor=none;horizontalStack=0;resizeParent=1;resizeParentMax=0;resizeLast=0;collapsible=1;marginBottom=0;" vertex="1" parent="1">
          <mxGeometry x="-717.5" y="860" width="190" height="46" as="geometry" />
        </mxCell>
        <mxCell id="Uil84AzYUFcc-cu5vtHI-57" value="Архив" style="text;html=1;align=center;verticalAlign=middle;resizable=0;points=[];autosize=1;strokeColor=none;fillColor=none;" vertex="1" parent="Uil84AzYUFcc-cu5vtHI-53">
          <mxGeometry y="26" width="190" height="20" as="geometry" />
        </mxCell>
        <mxCell id="Uil84AzYUFcc-cu5vtHI-54" value="" style="group" vertex="1" connectable="0" parent="1">
          <mxGeometry x="-692.5" y="750" width="140" height="60" as="geometry" />
        </mxCell>
        <mxCell id="Uil84AzYUFcc-cu5vtHI-55" value="Архив" style="swimlane;fontStyle=0;childLayout=stackLayout;horizontal=1;startSize=26;fillColor=none;horizontalStack=0;resizeParent=1;resizeParentMax=0;resizeLast=0;collapsible=1;marginBottom=0;" vertex="1" parent="Uil84AzYUFcc-cu5vtHI-54">
          <mxGeometry width="140" height="46" as="geometry" />
        </mxCell>
        <mxCell id="Uil84AzYUFcc-cu5vtHI-58" value="Аналитический отдел" style="text;html=1;align=center;verticalAlign=middle;resizable=0;points=[];autosize=1;strokeColor=none;fillColor=none;" vertex="1" parent="Uil84AzYUFcc-cu5vtHI-55">
          <mxGeometry y="26" width="140" height="20" as="geometry" />
        </mxCell>
        <mxCell id="Uil84AzYUFcc-cu5vtHI-59" value="" style="endArrow=none;html=1;entryX=0;entryY=0.25;entryDx=0;entryDy=0;exitX=1;exitY=0.25;exitDx=0;exitDy=0;" edge="1" parent="1" source="Uil84AzYUFcc-cu5vtHI-55" target="wk1zh_JFjW3oBxZrR2lf-58">
          <mxGeometry width="50" height="50" relative="1" as="geometry">
            <mxPoint x="-1182.5" y="410" as="sourcePoint" />
            <mxPoint x="-1132.5" y="360" as="targetPoint" />
          </mxGeometry>
        </mxCell>
        <mxCell id="Uil84AzYUFcc-cu5vtHI-60" value="" style="endArrow=none;html=1;entryX=0.524;entryY=1.114;entryDx=0;entryDy=0;entryPerimeter=0;exitX=0.5;exitY=0;exitDx=0;exitDy=0;" edge="1" parent="1" source="Uil84AzYUFcc-cu5vtHI-53" target="Uil84AzYUFcc-cu5vtHI-58">
          <mxGeometry width="50" height="50" relative="1" as="geometry">
            <mxPoint x="-1182.5" y="410" as="sourcePoint" />
            <mxPoint x="-1132.5" y="360" as="targetPoint" />
          </mxGeometry>
        </mxCell>
        <mxCell id="Uil84AzYUFcc-cu5vtHI-62" value="" style="endArrow=none;html=1;entryX=0.166;entryY=1.131;entryDx=0;entryDy=0;entryPerimeter=0;exitX=0.5;exitY=0;exitDx=0;exitDy=0;" edge="1" parent="1" source="Uil84AzYUFcc-cu5vtHI-55" target="wk1zh_JFjW3oBxZrR2lf-49">
          <mxGeometry width="50" height="50" relative="1" as="geometry">
            <mxPoint x="-1010" y="400" as="sourcePoint" />
            <mxPoint x="-960" y="350" as="targetPoint" />
          </mxGeometry>
        </mxCell>
      </root>
    </mxGraphModel>
  </diagram>
</mxfile>
